<svg xmlns="http://www.w3.org/2000/svg" xmlns:xlink="http://www.w3.org/1999/xlink" width="1366" height="1378" viewBox="0 0 1366 1378">
  <defs>
    <clipPath id="clip-Web_1920_1">
      <rect width="1366" height="1378"/>
    </clipPath>
  </defs>
  <g id="Web_1920_1" data-name="Web 1920 – 1" clip-path="url(#clip-Web_1920_1)">
    <rect width="1366" height="1378" fill="#fff"/>
    <g id="Прямоугольник_15" data-name="Прямоугольник 15" fill="#fff" stroke="#ffb9ab" stroke-width="1">
      <rect width="1366" height="1378" stroke="none"/>
      <rect x="0.5" y="0.5" width="1365" height="1377" fill="none"/>
    </g>
    <g id="Прямоугольник_1" data-name="Прямоугольник 1" fill="#bfbfbf" stroke="#707070" stroke-width="1">
      <rect width="1377" height="90" stroke="none"/>
      <rect x="0.5" y="0.5" width="1376" height="89" fill="none"/>
    </g>
    <g id="Прямоугольник_2" data-name="Прямоугольник 2" transform="translate(231 36)" fill="#fff" stroke="#707070" stroke-width="1">
      <rect width="1125" height="34" stroke="none"/>
      <rect x="0.5" y="0.5" width="1124" height="33" fill="none"/>
    </g>
    <text id="Title" transform="translate(665 30)" fill="#707070" font-size="20" font-family="HelveticaNeue, Helvetica Neue"><tspan x="0" y="0">Title</tspan></text>
    <text id="http_www.mudomain.com" data-name="http//www.mudomain.com" transform="translate(255 58)" fill="#707070" font-size="14" font-family="HelveticaNeue, Helvetica Neue"><tspan x="0" y="0">http//www.mudomain.com</tspan></text>
    <g id="_1" data-name="1" transform="translate(105.652 -20.688)">
      <path id="Контур_1" data-name="Контур 1" d="M141.544,210.942H112.42a1.62,1.62,0,0,1-1.62-1.62v-25.7a1.62,1.62,0,1,1,3.24,0V207.7h25.884V183.62a1.62,1.62,0,1,1,3.24,0v25.7A1.62,1.62,0,0,1,141.544,210.942Z" transform="translate(-44.266 -120.253)" fill="#ff5351"/>
      <path id="Контур_2" data-name="Контур 2" d="M102.636,70.348a1.62,1.62,0,0,1-1.146-.474L82.715,51.1,63.94,69.874a1.62,1.62,0,1,1-2.291-2.291L81.566,47.662a1.62,1.62,0,0,1,2.29,0l19.925,19.921a1.62,1.62,0,0,1-1.146,2.765Z" fill="#ff5351"/>
      <path id="Контур_3" data-name="Контур 3" d="M213.165,307.707h-9.4a1.62,1.62,0,0,1-1.62-1.62V292.1a1.62,1.62,0,0,1,1.62-1.62h9.4a1.62,1.62,0,0,1,1.62,1.62v13.987A1.62,1.62,0,0,1,213.165,307.707Zm-7.775-3.24h6.155V293.72H205.39Z" transform="translate(-125.751 -217.019)" fill="#ff5351"/>
    </g>
    <g id="_4781857_arrow_arrows_back_direction_left_icon" data-name="4781857_arrow_arrows_back_direction_left_icon" transform="translate(535.565 279.072)">
      <g id="Layer_2" data-name="Layer 2" transform="translate(-527 -255)">
        <path id="Контур_4" data-name="Контур 4" d="M13,42.787a.862.862,0,0,1-.71-.533L3.29,25.7a3.03,3.03,0,0,1,0-2.612l9-16.553c.392-.721,1.028-.721,1.42,0a3.046,3.046,0,0,1,0,2.612L5.41,24.4l8.3,15.247a3.03,3.03,0,0,1,0,2.612A.862.862,0,0,1,13,42.787Z" fill="#ff5351"/>
        <path id="Контур_5" data-name="Контур 5" d="M35.276,17H4.291A1.174,1.174,0,0,1,3,16a1.174,1.174,0,0,1,1.291-1H35.276a1.174,1.174,0,0,1,1.291,1A1.174,1.174,0,0,1,35.276,17Z" transform="translate(0 8.395)" fill="#ff5351"/>
      </g>
      <g id="Layer_2-2" data-name="Layer 2" transform="matrix(-1, 0.017, -0.017, -1, -442.016, -206.276)">
        <path id="Контур_4-2" data-name="Контур 4" d="M13,42.787a.862.862,0,0,1-.71-.533L3.29,25.7a3.03,3.03,0,0,1,0-2.612l9-16.553c.392-.721,1.028-.721,1.42,0a3.046,3.046,0,0,1,0,2.612L5.41,24.4l8.3,15.247a3.03,3.03,0,0,1,0,2.612A.862.862,0,0,1,13,42.787Z" fill="#ff5351"/>
        <path id="Контур_5-2" data-name="Контур 5" d="M35.276,17H4.291A1.174,1.174,0,0,1,3,16a1.174,1.174,0,0,1,1.291-1H35.276a1.174,1.174,0,0,1,1.291,1A1.174,1.174,0,0,1,35.276,17Z" transform="translate(0 8.395)" fill="#ff5351"/>
      </g>
      <g id="frame">
        <rect id="Прямоугольник_3" data-name="Прямоугольник 3" width="32" height="32" fill="none"/>
      </g>
    </g>
    <path id="_5760336_reload_reset_restart_return_update_icon" data-name="5760336_reload_reset_restart_return_update_icon" d="M48.811,20.531a.812.812,0,0,0-1.072.137l-4.093,4.954C42.754,15.269,33.356,7.272,22.032,7.23S1.241,15.115.257,25.461,7.1,45.117,18.265,46.872,40.19,42.243,43.022,32.188a.662.662,0,0,0-.19-.7.814.814,0,0,0-.758-.18.731.731,0,0,0-.534.524C38.9,41.24,28.81,47.2,18.38,45.516S.684,35.081,1.693,25.414s9.955-17,20.543-16.833S41.494,16.35,42.146,26.043l-5.666-3.95a.813.813,0,0,0-1.074.135.665.665,0,0,0,.147.985L42.582,28.1a.813.813,0,0,0,.463.14.513.513,0,0,0,.1,0,.782.782,0,0,0,.505-.27l5.322-6.443A.659.659,0,0,0,49.122,21a.7.7,0,0,0-.311-.465Z" transform="translate(105.175 22.838)" fill="#ff5351"/>
    <g id="Прямоугольник_4" data-name="Прямоугольник 4" transform="translate(0 90)" fill="#f2f2f2" stroke="#707070" stroke-width="1">
      <rect width="1366" height="127" stroke="none"/>
      <rect x="0.5" y="0.5" width="1365" height="126" fill="none"/>
    </g>
    <g id="Прямоугольник_5" data-name="Прямоугольник 5" transform="translate(62 102)" fill="#fff" stroke="#707070" stroke-width="1">
      <rect width="862" height="33" rx="16.5" stroke="none"/>
      <rect x="0.5" y="0.5" width="861" height="32" rx="16" fill="none"/>
    </g>
    <g id="Прямоугольник_6" data-name="Прямоугольник 6" transform="translate(62 102)" fill="#fff" stroke="#707070" stroke-width="1">
      <rect width="78" height="33" rx="16.5" stroke="none"/>
      <rect x="0.5" y="0.5" width="77" height="32" rx="16" fill="none"/>
    </g>
    <g id="_2561381_search_icon" data-name="2561381_search_icon" transform="translate(875 107)">
      <circle id="Эллипс_1" data-name="Эллипс 1" cx="7.5" cy="7.5" r="7.5" transform="translate(3 3)" fill="none" stroke="#000" stroke-linecap="round" stroke-linejoin="round" stroke-width="2"/>
      <line id="Линия_1" data-name="Линия 1" x1="5.2" y1="5.2" transform="translate(15.8 15.8)" fill="none" stroke="#000" stroke-linecap="round" stroke-linejoin="round" stroke-width="2"/>
    </g>
    <text id="All" transform="translate(76 126)" fill="#707070" font-size="20" font-family="HelveticaNeue, Helvetica Neue"><tspan x="0" y="0">All</tspan></text>
    <g id="Многоугольник_1" data-name="Многоугольник 1" transform="translate(196 183) rotate(180)" fill="#fff">
      <path d="M 21.82830810546875 11.5 L 1.171692132949829 11.5 L 11.5 0.7226352095603943 L 21.82830810546875 11.5 Z" stroke="none"/>
      <path d="M 11.5 1.445290565490723 L 2.343402862548828 11 L 20.65659713745117 11 L 11.5 1.445290565490723 M 11.5 0 L 23 12 L 0 12 L 11.5 0 Z" stroke="none" fill="#707070"/>
    </g>
    <g id="Многоугольник_2" data-name="Многоугольник 2" transform="translate(1166 197) rotate(180)" fill="#fff">
      <path d="M 21.82830810546875 11.5 L 1.171692132949829 11.5 L 11.5 0.7226352095603943 L 21.82830810546875 11.5 Z" stroke="none"/>
      <path d="M 11.5 1.445290565490723 L 2.343402862548828 11 L 20.65659713745117 11 L 11.5 1.445290565490723 M 11.5 0 L 23 12 L 0 12 L 11.5 0 Z" stroke="none" fill="#707070"/>
    </g>
    <text id="Deparments_Account_Deals_Registry_Sell_Help" data-name="Deparments         Account        Deals       Registry        Sell         Help" transform="translate(62 183)" fill="#707070" font-size="20" font-family="HelveticaNeue, Helvetica Neue"><tspan x="0" y="0" xml:space="preserve">Deparments         Account        Deals       Registry        Sell         Help</tspan></text>
    <text id="Sign_In" data-name="Sign In" transform="translate(1068 193)" fill="#707070" font-size="20" font-family="HelveticaNeue, Helvetica Neue"><tspan x="0" y="0">Sign In</tspan></text>
    <text id="Cart" transform="translate(1213 195)" fill="#707070" font-size="20" font-family="HelveticaNeue, Helvetica Neue"><tspan x="0" y="0">Cart</tspan></text>
    <g id="Прямоугольник_7" data-name="Прямоугольник 7" transform="translate(1264 158.75)" fill="#fff" stroke="#ff0d0d" stroke-width="1">
      <rect width="56.7" height="39.9" stroke="none"/>
      <rect x="0.5" y="0.5" width="55.7" height="38.9" fill="none"/>
    </g>
    <line id="Линия_2" data-name="Линия 2" x2="56.7" y2="37.8" transform="translate(1264.35 161.2)" fill="none" stroke="#707070" stroke-width="1"/>
    <line id="Линия_3" data-name="Линия 3" x1="54.6" y2="39.9" transform="translate(1266.45 159.1)" fill="none" stroke="#707070" stroke-width="1"/>
    <g id="Прямоугольник_8" data-name="Прямоугольник 8" transform="translate(0 217)" fill="#fff" stroke="#f80000" stroke-width="1">
      <rect width="1366" height="357" stroke="none"/>
      <rect x="0.5" y="0.5" width="1365" height="356" fill="none"/>
    </g>
    <line id="Линия_4" data-name="Линия 4" x2="1365.5" y2="346.479" transform="translate(0.5 222.041)" fill="none" stroke="red" stroke-width="1"/>
    <path id="Контур_6" data-name="Контур 6" d="M1365.5,0,0,351.062" transform="translate(0.5 217.458)" fill="none" stroke="#ff0a0a" stroke-width="1"/>
    <text id="Header" transform="translate(69 340)" font-size="30" font-family="HelveticaNeue, Helvetica Neue"><tspan x="0" y="0">Header</tspan></text>
    <text id="It_is_a_long_established_fact_that_a_reader_will_be_distracted_by_the_readable_content_of_a_page_when_looking_at_its_layout._The_point_of_using_Lorem_Ipsum_is_that_it_has_a_more-or-less_normal_distribution_of_letters_as_opposed_to_using_Content_here_con" data-name="It is a long established fact that a reader will be distracted by the readable content of a page when looking at its layout. The point of using Lorem Ipsum is that it has a more-or-less normal distribution of letters, as opposed to using ‘Content here, con" transform="translate(69 361)" font-size="18" font-family="HelveticaNeue, Helvetica Neue" opacity="0.759"><tspan x="0" y="17">It is a long established fact that a </tspan><tspan x="0" y="39">reader will be distracted by the </tspan><tspan x="0" y="61">readable content of a page when </tspan><tspan x="0" y="83">looking at its layout. The point of </tspan></text>
    <text id="Welcome_" data-name="Welcome " transform="translate(64 644)" font-size="30" font-family="HelveticaNeue, Helvetica Neue"><tspan x="0" y="0">Welcome </tspan></text>
    <text id="Popular_derparmrnts._" data-name="Popular derparmrnts. " transform="translate(363 626)" font-size="30" font-family="HelveticaNeue, Helvetica Neue"><tspan x="0" y="0">Popular derparmrnts. </tspan></text>
    <text id="Clothing" transform="translate(734 626)" font-size="30" font-family="HelveticaNeue, Helvetica Neue"><tspan x="0" y="0">Clothing</tspan></text>
    <text id="Deals" transform="translate(1015 626)" font-size="30" font-family="HelveticaNeue, Helvetica Neue"><tspan x="0" y="0">Deals</tspan></text>
    <g id="Прямоугольник_9" data-name="Прямоугольник 9" transform="translate(61 687)" fill="#ffb9ab" stroke="#707070" stroke-width="1">
      <rect width="221" height="52" rx="21" stroke="none"/>
      <rect x="0.5" y="0.5" width="220" height="51" rx="20.5" fill="none"/>
    </g>
    <g id="Прямоугольник_10" data-name="Прямоугольник 10" transform="translate(61 767)" fill="#ffb9ab" stroke="#707070" stroke-width="1">
      <rect width="221" height="47" rx="21" stroke="none"/>
      <rect x="0.5" y="0.5" width="220" height="46" rx="20.5" fill="none"/>
    </g>
    <g id="Прямоугольник_12" data-name="Прямоугольник 12" transform="translate(734 953)" fill="#ffb9ab" stroke="#707070" stroke-width="1">
      <rect width="221" height="47" rx="21" stroke="none"/>
      <rect x="0.5" y="0.5" width="220" height="46" rx="20.5" fill="none"/>
    </g>
    <g id="Прямоугольник_13" data-name="Прямоугольник 13" transform="translate(1015 956)" fill="#ffb9ab" stroke="#707070" stroke-width="1">
      <rect width="221" height="47" rx="21" stroke="none"/>
      <rect x="0.5" y="0.5" width="220" height="46" rx="20.5" fill="none"/>
    </g>
    <g id="Сгруппировать_1" data-name="Сгруппировать 1" transform="translate(363 673)">
      <g id="Прямоугольник_11" data-name="Прямоугольник 11" fill="#fff" stroke="#f70e0e" stroke-width="1">
        <rect width="109" height="80" rx="11" stroke="none"/>
        <rect x="0.5" y="0.5" width="108" height="79" rx="10.5" fill="none"/>
      </g>
      <line id="Линия_5" data-name="Линия 5" x2="108.679" y2="79.698" transform="translate(0.302 0.302)" fill="none" stroke="#ff0a0a" stroke-width="1"/>
      <line id="Линия_6" data-name="Линия 6" y1="77.283" x2="108.679" transform="translate(0.302 2.717)" fill="none" stroke="#ff0d0d" stroke-width="1"/>
    </g>
    <g id="Сгруппировать_2" data-name="Сгруппировать 2" transform="translate(507.756 673)">
      <g id="Прямоугольник_11-2" data-name="Прямоугольник 11" transform="translate(0.244)" fill="#fff" stroke="#f70e0e" stroke-width="1">
        <rect width="109" height="80" rx="11" stroke="none"/>
        <rect x="0.5" y="0.5" width="108" height="79" rx="10.5" fill="none"/>
      </g>
      <line id="Линия_5-2" data-name="Линия 5" x2="108.679" y2="79.698" transform="translate(0.302 0.302)" fill="none" stroke="#ff0a0a" stroke-width="1"/>
      <line id="Линия_6-2" data-name="Линия 6" y1="77.283" x2="108.679" transform="translate(0.302 2.717)" fill="none" stroke="#ff0d0d" stroke-width="1"/>
    </g>
    <g id="Сгруппировать_7" data-name="Сгруппировать 7" transform="translate(734 666)">
      <g id="Прямоугольник_11-3" data-name="Прямоугольник 11" fill="#fff" stroke="#f70e0e" stroke-width="1">
        <rect width="219" height="272" rx="11" stroke="none"/>
        <rect x="0.5" y="0.5" width="218" height="271" rx="10.5" fill="none"/>
      </g>
      <line id="Линия_5-3" data-name="Линия 5" x2="218.155" y2="270.605" transform="translate(0.117 1.025)" fill="none" stroke="#ff0a0a" stroke-width="1"/>
      <line id="Линия_6-3" data-name="Линия 6" y1="262.405" x2="218.155" transform="translate(0.117 9.225)" fill="none" stroke="#ff0d0d" stroke-width="1"/>
    </g>
    <g id="Сгруппировать_8" data-name="Сгруппировать 8" transform="translate(1015.35 666)">
      <g id="Прямоугольник_11-4" data-name="Прямоугольник 11" transform="translate(-0.35)" fill="#fff" stroke="#f70e0e" stroke-width="1">
        <rect width="219" height="272" rx="11" stroke="none"/>
        <rect x="0.5" y="0.5" width="218" height="271" rx="10.5" fill="none"/>
      </g>
      <line id="Линия_5-4" data-name="Линия 5" x2="218.155" y2="270.605" transform="translate(0.117 1.025)" fill="none" stroke="#ff0a0a" stroke-width="1"/>
      <line id="Линия_6-4" data-name="Линия 6" y1="262.405" x2="218.155" transform="translate(0.117 9.225)" fill="none" stroke="#ff0d0d" stroke-width="1"/>
    </g>
    <g id="Сгруппировать_3" data-name="Сгруппировать 3" transform="translate(363 798.045)">
      <g id="Прямоугольник_11-5" data-name="Прямоугольник 11" transform="translate(0 -0.045)" fill="#fff" stroke="#f70e0e" stroke-width="1">
        <rect width="109" height="80" rx="11" stroke="none"/>
        <rect x="0.5" y="0.5" width="108" height="79" rx="10.5" fill="none"/>
      </g>
      <line id="Линия_5-5" data-name="Линия 5" x2="108.679" y2="79.698" transform="translate(0.302 0.302)" fill="none" stroke="#ff0a0a" stroke-width="1"/>
      <line id="Линия_6-5" data-name="Линия 6" y1="77.283" x2="108.679" transform="translate(0.302 2.717)" fill="none" stroke="#ff0d0d" stroke-width="1"/>
    </g>
    <g id="Сгруппировать_4" data-name="Сгруппировать 4" transform="translate(507.756 798.045)">
      <g id="Прямоугольник_11-6" data-name="Прямоугольник 11" transform="translate(0.244 -0.045)" fill="#fff" stroke="#f70e0e" stroke-width="1">
        <rect width="109" height="80" rx="11" stroke="none"/>
        <rect x="0.5" y="0.5" width="108" height="79" rx="10.5" fill="none"/>
      </g>
      <line id="Линия_5-6" data-name="Линия 5" x2="108.679" y2="79.698" transform="translate(0.302 0.302)" fill="none" stroke="#ff0a0a" stroke-width="1"/>
      <line id="Линия_6-6" data-name="Линия 6" y1="77.283" x2="108.679" transform="translate(0.302 2.717)" fill="none" stroke="#ff0d0d" stroke-width="1"/>
    </g>
    <g id="Сгруппировать_5" data-name="Сгруппировать 5" transform="translate(363 923.09)">
      <g id="Прямоугольник_11-7" data-name="Прямоугольник 11" transform="translate(0 -0.09)" fill="#fff" stroke="#f70e0e" stroke-width="1">
        <rect width="109" height="80" rx="11" stroke="none"/>
        <rect x="0.5" y="0.5" width="108" height="79" rx="10.5" fill="none"/>
      </g>
      <line id="Линия_5-7" data-name="Линия 5" x2="108.679" y2="79.698" transform="translate(0.302 0.302)" fill="none" stroke="#ff0a0a" stroke-width="1"/>
      <line id="Линия_6-7" data-name="Линия 6" y1="77.283" x2="108.679" transform="translate(0.302 2.717)" fill="none" stroke="#ff0d0d" stroke-width="1"/>
    </g>
    <g id="Сгруппировать_6" data-name="Сгруппировать 6" transform="translate(507.756 923.09)">
      <g id="Прямоугольник_11-8" data-name="Прямоугольник 11" transform="translate(0.244 -0.09)" fill="#fff" stroke="#f70e0e" stroke-width="1">
        <rect width="109" height="80" rx="11" stroke="none"/>
        <rect x="0.5" y="0.5" width="108" height="79" rx="10.5" fill="none"/>
      </g>
      <line id="Линия_5-8" data-name="Линия 5" x2="108.679" y2="79.698" transform="translate(0.302 0.302)" fill="none" stroke="#ff0a0a" stroke-width="1"/>
      <line id="Линия_6-8" data-name="Линия 6" y1="77.283" x2="108.679" transform="translate(0.302 2.717)" fill="none" stroke="#ff0d0d" stroke-width="1"/>
    </g>
    <g id="Прямоугольник_14" data-name="Прямоугольник 14" transform="translate(0 1026)" fill="#ffb9ab" stroke="#707070" stroke-width="1">
      <rect width="1377" height="63" stroke="none"/>
      <rect x="0.5" y="0.5" width="1376" height="62" fill="none"/>
    </g>
    <text id="Shop_clothing" data-name="Shop clothing" transform="translate(751 988)" font-size="30" font-family="HelveticaNeue, Helvetica Neue"><tspan x="0" y="0">Shop clothing</tspan></text>
    <text id="Shop_deals" data-name="Shop deals" transform="translate(1054 988)" font-size="30" font-family="HelveticaNeue, Helvetica Neue"><tspan x="0" y="0">Shop deals</tspan></text>
    <text id="Returns_to_top" data-name="Returns to top" transform="translate(552 1065)" font-size="33" font-family="HelveticaNeue, Helvetica Neue"><tspan x="0" y="0">Returns to top</tspan></text>
    <text id="Sign_in-2" data-name="Sign in" transform="translate(130 723)" font-size="25" font-family="HelveticaNeue, Helvetica Neue"><tspan x="0" y="0">Sign in</tspan></text>
    <text id="Create_account" data-name="Create account" transform="translate(86 800)" font-size="25" font-family="HelveticaNeue, Helvetica Neue"><tspan x="0" y="0">Create account</tspan></text>
    <text id="About" transform="translate(86 1194)" font-size="30" font-family="HelveticaNeue, Helvetica Neue"><tspan x="0" y="0">About</tspan></text>
    <text id="Jobs" transform="translate(406 1194)" font-size="30" font-family="HelveticaNeue, Helvetica Neue"><tspan x="0" y="0">Jobs</tspan></text>
    <text id="Payment_and_Products" data-name="Payment and Products" transform="translate(658 1189)" font-size="30" font-family="HelveticaNeue, Helvetica Neue"><tspan x="0" y="0">Payment and Products</tspan></text>
    <text id="Help" transform="translate(1182 1194)" font-size="30" font-family="HelveticaNeue, Helvetica Neue"><tspan x="0" y="0">Help</tspan></text>
    <text id="Lorem" transform="translate(406 1241)" font-size="30" font-family="HelveticaNeue, Helvetica Neue" opacity="0.519"><tspan x="0" y="0">Lorem</tspan></text>
    <text id="Lorem-2" data-name="Lorem" transform="translate(759 1239)" font-size="30" font-family="HelveticaNeue, Helvetica Neue" opacity="0.519"><tspan x="0" y="0">Lorem</tspan></text>
    <text id="Lorem-3" data-name="Lorem" transform="translate(1171 1241)" font-size="30" font-family="HelveticaNeue, Helvetica Neue" opacity="0.519"><tspan x="0" y="0">Lorem</tspan></text>
    <text id="Lorem-4" data-name="Lorem" transform="translate(84 1241)" font-size="30" font-family="HelveticaNeue, Helvetica Neue" opacity="0.519"><tspan x="0" y="0">Lorem</tspan></text>
    <text id="Lorem-5" data-name="Lorem" transform="translate(406 1296)" font-size="30" font-family="HelveticaNeue, Helvetica Neue" opacity="0.519"><tspan x="0" y="0">Lorem</tspan></text>
    <text id="Lorem-6" data-name="Lorem" transform="translate(759 1294)" font-size="30" font-family="HelveticaNeue, Helvetica Neue" opacity="0.519"><tspan x="0" y="0">Lorem</tspan></text>
    <text id="Lorem-7" data-name="Lorem" transform="translate(1171 1296)" font-size="30" font-family="HelveticaNeue, Helvetica Neue" opacity="0.519"><tspan x="0" y="0">Lorem</tspan></text>
    <text id="Lorem-8" data-name="Lorem" transform="translate(84 1297)" font-size="30" font-family="HelveticaNeue, Helvetica Neue" opacity="0.519"><tspan x="0" y="0">Lorem</tspan></text>
    <text id="Lorem-9" data-name="Lorem" transform="translate(406 1351)" font-size="30" font-family="HelveticaNeue, Helvetica Neue" opacity="0.519"><tspan x="0" y="0">Lorem</tspan></text>
    <text id="Lorem-10" data-name="Lorem" transform="translate(759 1349)" font-size="30" font-family="HelveticaNeue, Helvetica Neue" opacity="0.519"><tspan x="0" y="0">Lorem</tspan></text>
    <text id="Lorem-11" data-name="Lorem" transform="translate(1171 1351)" font-size="30" font-family="HelveticaNeue, Helvetica Neue" opacity="0.519"><tspan x="0" y="0">Lorem</tspan></text>
    <text id="Lorem-12" data-name="Lorem" transform="translate(84 1353)" font-size="30" font-family="HelveticaNeue, Helvetica Neue" opacity="0.519"><tspan x="0" y="0">Lorem</tspan></text>
  </g>
</svg>
